<svg width="15" height="16" viewBox="0 0 15 16" fill="none" xmlns="http://www.w3.org/2000/svg">
<path d="M0.325703 13.9141C-0.0438476 14.3245 -0.0107103 14.9568 0.399717 15.3263C0.810145 15.6959 1.44244 15.6627 1.81199 15.2523L0.325703 13.9141ZM13.7175 1.59219C13.6886 1.04066 13.2181 0.616992 12.6665 0.645896L3.67887 1.11692C3.12735 1.14582 2.70368 1.61636 2.73258 2.16789C2.76149 2.71941 3.23202 3.14308 3.78355 3.11418L11.7726 2.69549L12.1913 10.6845C12.2202 11.2361 12.6907 11.6597 13.2422 11.6308C13.7938 11.6019 14.2174 11.1314 14.1885 10.5799L13.7175 1.59219ZM1.81199 15.2523L13.462 2.31366L11.9757 0.975396L0.325703 13.9141L1.81199 15.2523Z" fill="#ADB5BD"/>
</svg>
