<svg width="17" height="17" viewBox="0 0 17 17" fill="none" xmlns="http://www.w3.org/2000/svg">
<g clip-path="url(#clip0_5_846)">
<path d="M7.79163 2.83331H2.83329C2.45757 2.83331 2.09723 2.98257 1.83156 3.24824C1.56588 3.51392 1.41663 3.87426 1.41663 4.24998V14.1666C1.41663 14.5424 1.56588 14.9027 1.83156 15.1684C2.09723 15.4341 2.45757 15.5833 2.83329 15.5833H12.75C13.1257 15.5833 13.486 15.4341 13.7517 15.1684C14.0174 14.9027 14.1666 14.5424 14.1666 14.1666V9.20831" stroke="#6D6875" stroke-width="2" stroke-linecap="round" stroke-linejoin="round"/>
<path d="M13.1041 1.77085C13.3859 1.48906 13.7681 1.33075 14.1666 1.33075C14.5651 1.33075 14.9473 1.48906 15.2291 1.77085C15.5109 2.05264 15.6692 2.43484 15.6692 2.83335C15.6692 3.23187 15.5109 3.61406 15.2291 3.89585L8.49996 10.625L5.66663 11.3334L6.37496 8.50002L13.1041 1.77085Z" stroke="#6D6875" stroke-width="2" stroke-linecap="round" stroke-linejoin="round"/>
</g>
<defs>
<clipPath id="clip0_5_846">
<rect width="17" height="17" fill="white"/>
</clipPath>
</defs>
</svg>
